<svg xmlns="http://www.w3.org/2000/svg" version="1.1" xmlns:xlink="http://www.w3.org/1999/xlink" xmlns:svgjs="http://svgjs.dev/svgjs" width="2000" height="1500" viewBox="0 0 2000 1500"><rect width="2000" height="1500" fill="#ffffff"></rect><g transform="matrix(0.75,0,0,0.75,249.090909090909,278.98548387096776)"><svg viewBox="0 0 396 248" data-background-color="#ffffff" preserveAspectRatio="xMidYMid meet" height="1252" width="2000" xmlns="http://www.w3.org/2000/svg" xmlns:xlink="http://www.w3.org/1999/xlink"><g id="tight-bounds" transform="matrix(1,0,0,1,0.2400000000000091,0.4000000000000057)"><svg viewBox="0 0 395.52 247.2" height="247.2" width="395.52"><g><svg></svg></g><g><svg viewBox="0 0 395.52 247.2" height="247.2" width="395.52"><mask id="be00a46f-eb9b-4992-9839-90a3e975c304"><rect width="640" height="400" fill="white"></rect><g transform="matrix(1,0,0,1,39.55199999999999,45.51015384615384)"><svg viewBox="0 0 316.416 156.1796923076923" height="156.1796923076923" width="316.416"><g><svg viewBox="0 0 316.416 156.1796923076923" height="156.1796923076923" width="316.416"><g><svg viewBox="0 0 316.416 156.1796923076923" height="156.1796923076923" width="316.416"><g><svg viewBox="0 0 316.416 156.1796923076923" height="156.1796923076923" width="316.416"><g id="SvgjsG1996"><svg viewBox="0 0 316.416 156.1796923076923" height="156.1796923076923" width="316.416" id="SvgjsSvg1995"><g><svg viewBox="0 0 316.416 156.1796923076923" height="156.1796923076923" width="316.416"><g transform="matrix(1,0,0,1,0,0)"><svg width="316.416" viewBox="-0.30000000000000004 -41.35 86.78999999999999 43.349999999999994" height="156.1796923076923" data-palette-color="#c9378b"><path d="M9.9-15.23Q9.9-10.8 10.78-8.93 11.65-7.05 13.65-7.05 15.65-7.05 19.3-8L19.3-8 20.6-0.95Q16.65 0.5 12.65 0.5L12.65 0.5Q6.65 0.5 3.93-3.48 1.2-7.45 1.2-15.33 1.2-23.2 4.05-27.38 6.9-31.55 13.35-31.55L13.35-31.55Q17.15-31.55 20.6-29.95L20.6-29.95 19.25-22.2Q15.35-23.5 13.8-23.5L13.8-23.5Q11.6-23.5 10.75-21.58 9.9-19.65 9.9-15.23ZM39-6.95L38.5 0 22.7 0 22.7-31.05 31.25-31.05 31.25-6.95 39-6.95ZM42.67-27.8Q45.55-31.55 52.09-31.55 58.64-31.55 61.47-27.85 64.3-24.15 64.3-15.83 64.3-7.5 61.39-3.5 58.5 0.5 51.99 0.5 45.49 0.5 42.64-3.45 39.8-7.4 39.8-15.73 39.8-24.05 42.67-27.8ZM55.7-15.8Q55.7-20.4 54.97-22.03 54.24-23.65 52.02-23.65 49.8-23.65 49.14-22.03 48.49-20.4 48.49-15.85L48.49-15.85 48.49-14.65Q48.49-9.8 49.22-8.28 49.95-6.75 52.17-6.75 54.39-6.75 55.05-8.2 55.7-9.65 55.7-14.2L55.7-14.2 55.7-15.8ZM84.99-7L84.49 0 67.69 0 67.69-31.05 84.99-31.05 84.49-23.4 76.24-23.4 76.24-18.75 83.39-18.75 83.39-12.15 76.24-12.15 76.24-7 84.99-7ZM75.89-39.85L83.49-39.85 78.39-33.2 72.89-33.2 75.89-39.85Z" opacity="1" transform="matrix(1,0,0,1,0,0)" fill="black" class="wordmark-text-0" id="SvgjsPath1994" stroke-width="2" stroke="black" stroke-linejoin="round"></path></svg></g></svg></g></svg></g></svg></g><g></g></svg></g></svg></g></svg></g></mask><g transform="matrix(1,0,0,1,39.55199999999999,45.51015384615384)"><svg viewBox="0 0 316.416 156.1796923076923" height="156.1796923076923" width="316.416"><g><svg viewBox="0 0 316.416 156.1796923076923" height="156.1796923076923" width="316.416"><g><svg viewBox="0 0 316.416 156.1796923076923" height="156.1796923076923" width="316.416"><g><svg viewBox="0 0 316.416 156.1796923076923" height="156.1796923076923" width="316.416"><g id="textblocktransform"><svg viewBox="0 0 316.416 156.1796923076923" height="156.1796923076923" width="316.416" id="textblock"><g><svg viewBox="0 0 316.416 156.1796923076923" height="156.1796923076923" width="316.416"><g transform="matrix(1,0,0,1,0,0)"><svg width="316.416" viewBox="-0.30000000000000004 -41.35 86.78999999999999 43.349999999999994" height="156.1796923076923" data-palette-color="#c9378b"><path d="M9.9-15.23Q9.9-10.8 10.78-8.93 11.65-7.05 13.65-7.05 15.65-7.05 19.3-8L19.3-8 20.6-0.95Q16.65 0.5 12.65 0.5L12.65 0.5Q6.65 0.5 3.93-3.48 1.2-7.45 1.2-15.33 1.2-23.2 4.05-27.38 6.9-31.55 13.35-31.55L13.35-31.55Q17.15-31.55 20.6-29.95L20.6-29.95 19.25-22.2Q15.35-23.5 13.8-23.5L13.8-23.5Q11.6-23.5 10.75-21.58 9.9-19.65 9.9-15.23ZM39-6.95L38.5 0 22.7 0 22.7-31.05 31.25-31.05 31.25-6.95 39-6.95ZM42.67-27.8Q45.55-31.55 52.09-31.55 58.64-31.55 61.47-27.85 64.3-24.15 64.3-15.83 64.3-7.5 61.39-3.5 58.5 0.5 51.99 0.5 45.49 0.5 42.64-3.45 39.8-7.4 39.8-15.73 39.8-24.05 42.67-27.8ZM55.7-15.8Q55.7-20.4 54.97-22.03 54.24-23.65 52.02-23.65 49.8-23.65 49.14-22.03 48.49-20.4 48.49-15.85L48.49-15.85 48.49-14.65Q48.49-9.8 49.22-8.28 49.95-6.75 52.17-6.75 54.39-6.75 55.05-8.2 55.7-9.65 55.7-14.2L55.7-14.2 55.7-15.8ZM84.99-7L84.49 0 67.69 0 67.69-31.05 84.99-31.05 84.49-23.4 76.24-23.4 76.24-18.75 83.39-18.75 83.39-12.15 76.24-12.15 76.24-7 84.99-7ZM75.89-39.85L83.49-39.85 78.39-33.2 72.89-33.2 75.89-39.85Z" opacity="1" transform="matrix(1,0,0,1,0,0)" fill="#c9378b" class="wordmark-text-0" data-fill-palette-color="primary" id="text-0"></path></svg></g></svg></g></svg></g></svg></g><g></g></svg></g></svg></g></svg></g><g mask="url(#be00a46f-eb9b-4992-9839-90a3e975c304)"><g transform="matrix(2.7461802690412873, 0, 0, 2.7461802690412873, 75.16603184765192, 1)"><svg xmlns="http://www.w3.org/2000/svg" xmlns:xlink="http://www.w3.org/1999/xlink" version="1.1" x="0" y="0" viewBox="0.35833249999999595 0.3587183000000067 89.28326340000001 89.2876563" enable-background="new 0 0 90 90" xml:space="preserve" height="89.2876563" width="89.28326340000001" class="icon-none" data-fill-palette-color="accent" id="none"><polygon points="57.928,58.169 57.875,76.027 45.397,63.548 45.397,45.639 " fill="#f6caec" data-fill-palette-color="accent"></polygon><polygon points="76.027,57.875 58.475,57.927 45.826,45.279 63.432,45.279 " fill="#f6caec" data-fill-palette-color="accent"></polygon><polygon points="76.027,32.125 63.432,44.721 45.707,44.721 58.355,32.073 " fill="#f6caec" data-fill-palette-color="accent"></polygon><polygon points="44.838,45.59 44.838,63.314 32.125,76.027 32.074,58.355 " fill="#f6caec" data-fill-palette-color="accent"></polygon><polygon points="57.928,31.712 45.397,44.243 45.397,26.452 57.875,13.974 " fill="#f6caec" data-fill-palette-color="accent"></polygon><polygon points="44.838,26.687 44.838,44.291 32.074,31.526 32.125,13.974 " fill="#f6caec" data-fill-palette-color="accent"></polygon><polygon points="44.479,44.721 26.569,44.721 13.974,32.125 31.832,32.073 " fill="#f6caec" data-fill-palette-color="accent"></polygon><polygon points="44.36,45.279 31.712,57.927 13.974,57.875 26.569,45.279 " fill="#f6caec" data-fill-palette-color="accent"></polygon><rect x="58.48" y="58.48" width="18.049" height="18.049" fill="#f6caec" data-fill-palette-color="accent"></rect><polygon points="76.527,13.474 76.527,31.516 58.914,31.516 58.912,31.518 58.484,31.516 58.484,13.474 " fill="#f6caec" data-fill-palette-color="accent"></polygon><polygon points="31.518,30.971 31.516,31.516 13.474,31.516 13.474,13.474 31.516,13.474 31.516,30.968 " fill="#f6caec" data-fill-palette-color="accent"></polygon><rect x="13.471" y="58.48" width="18.05" height="18.049" fill="#f6caec" data-fill-palette-color="accent"></rect><rect x="67.864" y="35.981" transform="matrix(0.7071 -0.7071 0.7071 0.7071 -9.3022 67.5465)" width="18.042" height="18.042" fill="#f6caec" data-fill-palette-color="accent"></rect><rect x="35.979" y="4.094" transform="matrix(0.7071 -0.7071 0.7071 0.7071 3.9068 35.6621)" width="18.042" height="18.042" fill="#f6caec" data-fill-palette-color="accent"></rect><rect x="4.095" y="35.98" transform="matrix(0.7071 -0.7071 0.7071 0.7071 -27.9787 22.4536)" width="18.041" height="18.041" fill="#f6caec" data-fill-palette-color="accent"></rect><rect x="35.98" y="67.865" transform="matrix(0.7071 -0.7071 0.7071 0.7071 -41.1877 54.3437)" width="18.04" height="18.041" fill="#f6caec" data-fill-palette-color="accent"></rect></svg></g></g></svg></g><defs></defs></svg><rect width="395.52" height="247.2" fill="none" stroke="none" visibility="hidden"></rect></g></svg></g></svg>